<?xml version="1.0" standalone="no"?>
<!DOCTYPE svg PUBLIC "-//W3C//DTD SVG 20010904//EN"
 "http://www.w3.org/TR/2001/REC-SVG-20010904/DTD/svg10.dtd">
<svg version="1.0" xmlns="http://www.w3.org/2000/svg"
 width="900.000000pt" height="900.000000pt" viewBox="0 0 900.000000 900.000000"
 preserveAspectRatio="xMidYMid meet">
<metadata>
Created by potrace 1.11, written by Peter Selinger 2001-2013
</metadata>
<g transform="translate(0.000000,900.000000) scale(0.100000,-0.100000)"
fill="#000000" stroke="none">
<path d="M4415 7867 c-243 -39 -382 -107 -548 -266 -76 -74 -2477 -2477 -2522
-2524 -11 -12 -31 -38 -45 -57 -13 -19 -29 -38 -35 -42 -5 -4 -6 -8 -1 -8 5 0
2 -8 -6 -17 -30 -34 -82 -160 -104 -252 -19 -78 -27 -269 -14 -326 5 -22 12
-55 15 -73 3 -18 12 -52 21 -75 8 -23 16 -46 18 -52 1 -5 11 -30 23 -55 51
-114 125 -196 594 -668 261 -262 491 -491 512 -509 22 -18 37 -33 34 -33 -5 0
501 -506 523 -524 8 -6 29 -28 47 -48 17 -20 34 -34 37 -31 3 4 6 1 6 -5 0 -7
52 -63 116 -124 64 -62 131 -129 148 -148 17 -19 151 -155 299 -302 147 -147
267 -273 267 -279 0 -7 2 -10 5 -7 3 3 40 -28 81 -68 42 -40 100 -87 130 -104
30 -16 54 -35 54 -41 0 -5 4 -8 8 -5 4 2 28 -5 52 -17 25 -11 50 -21 55 -22 6
0 21 -7 35 -15 14 -7 27 -13 30 -12 6 1 42 -6 98 -20 65 -17 248 -17 280 -1
14 8 31 11 39 9 7 -3 33 1 58 8 25 8 45 12 45 9 0 -3 7 1 16 8 9 7 23 14 31
15 8 1 31 11 51 20 20 10 39 18 42 19 12 1 148 97 183 129 20 19 37 32 37 29
0 -3 10 7 22 23 31 40 270 274 280 274 4 0 7 3 6 8 -3 10 164 178 174 175 4
-2 8 1 8 6 0 6 42 53 93 105 52 53 92 98 89 101 -3 3 3 5 13 5 10 0 15 3 12 7
-4 3 5 15 20 25 16 10 24 18 20 18 -4 0 14 19 40 43 96 86 440 436 435 442 -3
3 2 5 12 5 9 0 14 4 11 10 -3 5 -2 10 3 10 13 0 280 269 274 275 -3 3 2 5 12
5 9 0 14 4 11 10 -3 5 -2 10 3 10 6 0 232 222 504 493 489 488 546 551 608
677 13 25 23 47 22 50 0 3 4 11 10 18 6 6 8 12 4 12 -4 0 0 13 8 29 8 15 18
41 21 57 14 70 22 124 17 124 -2 0 0 6 5 13 14 17 5 186 -12 257 -4 14 -11 43
-16 65 -11 53 -29 98 -63 165 -29 57 -92 149 -111 162 -5 4 -7 8 -3 8 14 0
-2578 2581 -2637 2625 -33 25 -72 51 -87 57 -16 7 -28 16 -28 20 0 5 -5 8 -11
8 -5 0 -29 9 -53 20 -117 53 -321 85 -431 67z m794 -1494 c0 -38 0 -355 0
-705 l1 -637 260 -260 c143 -144 260 -266 260 -273 0 -15 -1859 -1868 -1875
-1868 -7 0 -17 6 -22 13 -6 7 -9 266 -9 651 l1 638 -277 278 c-153 153 -278
283 -278 290 0 6 354 366 788 799 433 434 865 868 961 965 95 97 177 176 182
176 4 0 8 -30 8 -67z"/>
</g>
</svg>
